<?xml version="1.0" encoding="UTF-8" standalone="no"?>
<!DOCTYPE svg PUBLIC "-//W3C//DTD SVG 1.1//EN" "http://www.w3.org/Graphics/SVG/1.1/DTD/svg11.dtd">
<svg width="100%" height="100%" viewBox="0 0 1000 500" version="1.1" xmlns="http://www.w3.org/2000/svg" xmlns:xlink="http://www.w3.org/1999/xlink" xml:space="preserve" xmlns:serif="http://www.serif.com/" style="fill-rule:evenodd;clip-rule:evenodd;stroke-linecap:round;stroke-linejoin:round;stroke-miterlimit:1.5;">
    <g transform="matrix(1,0,0,1,32.9325,9.26218)">
        <g>
            <g transform="matrix(0.185847,0,0,0.185847,242.123,19.2285)">
                <path d="M15.562,2386.17L804.035,2386.17" style="fill:none;stroke:black;stroke-width:5.38px;"/>
            </g>
            <g transform="matrix(0.185847,0,0,0.185847,242.123,19.2285)">
                <path d="M1602.88,1595.97L1602.88,2375.79L2405.19,2375.79L2405.19,17.291L29.395,2393.08L807.493,2393.08L1602.88,1595.97Z" style="fill:rgb(255,0,0);"/>
            </g>
            <g transform="matrix(0.185847,0,0,0.185847,242.123,19.2285)">
                <path d="M2405.19,2349.86L2405.19,-8.646L2405.19,2349.86Z" style="fill:rgb(255,0,0);"/>
            </g>
            <g transform="matrix(0.185847,0,0,0.185847,242.123,19.2285)">
                <path d="M982.133,2384.44L1442.08,1924.5L1442.08,2382.71L982.133,2384.44Z" style="fill:rgb(255,0,0);"/>
            </g>
        </g>
    </g>
</svg>
